<svg width="96" height="96" viewBox="0 0 96 96" fill="none" xmlns="http://www.w3.org/2000/svg">
  <circle cx="48" cy="48" r="48" fill="#00AB41"/>
  <circle cx="48" cy="48" r="48" fill="url(#mf_grad)"/>
  <path d="M48 22c-10 8-18 17-18 30 0 12 8 20 18 22 10-2 18-10 18-22 0-13-8-22-18-30Z" fill="#ffffff" fill-opacity="0.95"/>
  <path d="M48 30v40" stroke="#00AB41" stroke-width="3" stroke-linecap="round"/>
  <path d="M48 44c-5-2-9-1-13-4M48 54c5-2 9-1 13-4M48 64c-4-2-7-1-10-3" stroke="#00AB41" stroke-width="3" stroke-linecap="round"/>
  <defs>
    <linearGradient id="mf_grad" x1="0" y1="0" x2="96" y2="96" gradientUnits="userSpaceOnUse">
      <stop stop-color="#16C265"/>
      <stop offset="1" stop-color="#009939"/>
    </linearGradient>
  </defs>
</svg>
